Coordinates
version=1
nRows=9
nColumns=63
inDegrees=yes

Units are S.I. units (second, meters, Newtons, ...)
If the header above contains a line with 'inDegrees', this indicates whether rotational values are in degrees (yes) or radians (no).

endheader
time	pelvis_tilt	pelvis_list	pelvis_rotation	pelvis_tx	pelvis_ty	pelvis_tz	hip_flexion_r	hip_adduction_r	hip_rotation_r	knee_angle_r	knee_angle_r_beta	ankle_angle_r	subtalar_angle_r	mtp_angle_r	hip_flexion_l	hip_adduction_l	hip_rotation_l	knee_angle_l	knee_angle_l_beta	ankle_angle_l	subtalar_angle_l	mtp_angle_l	L5_S1_Flex_Ext	L5_S1_Lat_Bending	L5_S1_axial_rotation	L4_L5_Flex_Ext	L4_L5_Lat_Bending	L4_L5_axial_rotation	L3_L4_Flex_Ext	L3_L4_Lat_Bending	L3_L4_axial_rotation	L2_L3_Flex_Ext	L2_L3_Lat_Bending	L2_L3_axial_rotation	L1_L2_Flex_Ext	L1_L2_Lat_Bending	L1_L2_axial_rotation	L1_T12_Flex_Ext	L1_T12_Lat_Bending	L1_T12_axial_rotation	Abs_r3	Abs_r2	Abs_r1	Abs_t1	Abs_t2	neck_flexion	neck_bending	neck_rotation	arm_flex_r	arm_add_r	arm_rot_r	elbow_flex_r	pro_sup_r	wrist_flex_r	wrist_dev_r	arm_flex_l	arm_add_l	arm_rot_l	elbow_flex_l	pro_sup_l	wrist_flex_l	wrist_dev_l
      1.13333333	     -0.09936635	     -6.18790081	     86.90968721	      0.22977654	      0.79119528	      0.65484297	      2.24900659	      0.45345266	    -11.11934572	      7.85656590	      0.13712294	     33.88096618	     18.35083331	      0.00000000	      0.92790954	     -1.89336130	    -15.31519214	     10.31618100	      0.18005132	     27.01923129	     11.16788673	      0.00000000	      0.00069025	      0.04672255	     -0.24500006	      0.00128187	      0.06214099	     -0.26031257	      0.00113402	      0.11360120	     -0.26031257	      0.00078889	      0.11360120	     -0.21437505	      0.00064097	      0.09527661	     -0.19906255	      0.00039441	      0.07237322	     -0.18375005	      0.00493042	      0.52853478	     -1.36261684	      0.00000000	      0.00000000	      2.98489611	     -1.16206920	     -6.70418131	    -24.69562260	    -18.22945348	      6.48592741	    134.41405179	     75.93722358	      2.87304180	      7.67833743	     -1.22136213	    -21.43858765	     78.09113398	     17.13669040	     45.93394921	      8.53798666	    -13.09158814
      1.15000000	      0.37097091	     -6.21988000	     86.87319510	      0.22922630	      0.79174085	      0.65397212	      2.14665807	      0.95632039	    -10.89277275	      7.57385499	      0.13218871	     33.80716069	     18.40089425	      0.00000000	      0.90928325	     -2.32966583	    -15.17844323	     10.33206306	      0.18032852	     27.10761083	     10.84242204	      0.00000000	      0.01443937	      0.14497256	     -0.33449062	      0.02681535	      0.19281351	     -0.35539629	      0.02372244	      0.35248628	     -0.35539629	      0.01650275	      0.35248628	     -0.29267930	      0.01340840	      0.29562805	     -0.27177363	      0.00825065	      0.22456250	     -0.25086797	      0.10313896	      1.63995860	     -1.86033651	      0.00000000	      0.00000000	      2.64047695	     -1.88436324	     -4.61894093	    -23.64213145	    -18.35323395	      6.32909011	    137.17996622	     74.60726567	      3.22242036	      7.10147024	     -0.50138189	    -20.56402582	     78.15607799	     17.20828497	     46.28001602	      8.51335333	    -12.90418207
      1.16666667	      0.68175512	     -6.29025728	     86.87251700	      0.22887774	      0.79222266	      0.65304088	      2.10494395	      1.29123680	    -10.78270702	      7.36395815	      0.12852532	     33.75113771	     18.44100677	      0.00000000	      0.91793121	     -2.61109656	    -15.03676957	     10.29824949	      0.17973836	     27.16429078	     10.71139085	      0.00000000	      0.03328757	      0.21498821	     -0.38644116	      0.06181835	      0.28593432	     -0.41059373	      0.05468815	      0.52272233	     -0.41059373	      0.03804437	      0.52272233	     -0.33813601	      0.03091084	      0.43840396	     -0.31398344	      0.01902052	      0.33301674	     -0.28983087	      0.23776980	      2.43198961	     -2.14926978	      0.00000000	      0.00000000	      2.38318484	     -2.54065213	     -3.02986771	    -22.38282820	    -18.16876817	      6.18365929	    139.78918461	     73.86236411	      3.10089383	      6.05994920	      0.38958648	    -20.02784543	     78.47891034	     17.64071895	     46.85794381	      8.40035494	    -12.55707431
      1.18333333	      1.03673128	     -6.32796110	     86.94377414	      0.22855518	      0.79288910	      0.65254192	      1.98886805	      1.68043484	    -10.83089773	      7.09257030	      0.12378870	     33.40031216	     18.45371273	      0.00000000	      1.02054321	     -2.96346065	    -14.79323858	     10.43505086	      0.18212600	     27.22635495	     10.50379902	      0.00000000	      0.04206141	      0.27825602	     -0.41510449	      0.07811225	      0.37008050	     -0.44104853	      0.06910269	      0.67655168	     -0.44104853	      0.04807199	      0.67655168	     -0.36321643	      0.03905823	      0.56741967	     -0.33727240	      0.02403389	      0.43101857	     -0.31132837	      0.30044046	      3.14768770	     -2.30868667	      0.00000000	      0.00000000	      2.08227027	     -2.60592348	     -1.75226471	    -20.65733238	    -18.25835437	      6.45288594	    142.29085590	     73.68254233	      1.22926306	      4.06251556	      1.55369160	    -19.46346685	     79.23974792	     18.05230962	     48.22809341	      7.29129302	    -11.69811525
      1.20000000	      1.00842622	     -6.36309021	     86.94737276	      0.22846673	      0.79352691	      0.65213118	      1.97648269	      1.63647618	    -11.01936442	      7.05753767	      0.12317727	     32.97733601	     18.44452165	      0.00000000	      1.06554649	     -2.90925179	    -14.65052342	     10.41501289	      0.18177627	     27.14544964	     10.59167796	      0.00000000	      0.06200656	      0.28392612	     -0.37308998	      0.11515238	      0.37762174	     -0.39640811	      0.10187057	      0.69033797	     -0.39640811	      0.07086729	      0.69033797	     -0.32645374	      0.05757929	      0.57898215	     -0.30313561	      0.03543055	      0.43980156	     -0.27981749	      0.44290664	      3.21182907	     -2.07501456	      0.00000000	      0.00000000	      1.56847782	     -2.69111450	     -1.55785473	    -18.89252767	    -17.77358291	      6.02957162	    144.76884672	     74.10219331	      0.61117306	      3.15905373	      2.55105470	    -19.18274179	     79.01627635	     18.57394470	     48.28140481	      6.99815191	    -11.77599485
      1.21666667	      1.02219173	     -6.30567238	     86.93521088	      0.22896224	      0.79411288	      0.65187483	      1.83768624	      1.66093861	    -11.24148523	      7.04032154	      0.12287679	     32.58502302	     18.49370925	      0.00000000	      1.04774439	     -2.93235546	    -14.58378924	     10.44155281	      0.18223948	     27.24341145	     10.54585668	      0.00000000	      0.06688817	      0.28677074	     -0.32380680	      0.12421802	      0.38140509	     -0.34404472	      0.10989058	      0.69725438	     -0.34404472	      0.07644649	      0.69725438	     -0.28333095	      0.06211236	      0.58478290	     -0.26309302	      0.03821990	      0.44420788	     -0.24285510	      0.47777551	      3.24400798	     -1.80091626	      0.00000000	      0.00000000	      1.16011092	     -2.64993558	     -1.34276238	    -16.70310191	    -17.86584117	      7.74740207	    147.44997914	     83.24589836	     -9.04413534	     -0.21442182	      2.89518211	    -19.44599596	     75.73374308	     20.83439124	     47.36868656	      4.24309608	    -10.26901712
      1.23333333	      0.88629727	     -6.16970942	     86.89306665	      0.22947563	      0.79497856	      0.65215002	      1.69409839	      1.50989048	    -11.44626924	      7.12936341	      0.12443087	     32.08096765	     18.51026279	      0.00000000	      0.99321515	     -2.81731278	    -14.64915294	     10.48414683	      0.18298288	     27.25869317	     10.79291375	      0.00000000	      0.06514734	      0.25812885	     -0.33395747	      0.12098513	      0.34331137	     -0.35482981	      0.10703057	      0.62761448	     -0.35482981	      0.07445690	      0.62761448	     -0.29221278	      0.06049582	      0.52637635	     -0.27134044	      0.03722519	      0.39984158	     -0.25046810	      0.46534096	      2.92000515	     -1.85737124	      0.00000000	      0.00000000	      0.49813351	     -2.38653495	     -1.40949964	    -13.70732913	    -17.65144948	      8.40995968	    148.98372491	     86.50530655	    -12.18355898	     -2.63553319	      2.74938113	    -19.60734925	     71.43177275	     22.71352220	     45.72608985	      2.26388289	     -9.98803618
      1.25000000	      0.64458677	     -5.97258016	     86.82416351	      0.23025996	      0.79602605	      0.65287782	      1.55770787	      1.25656266	    -11.77979686	      7.29827749	      0.12737897	     31.56270097	     18.48281006	      0.00000000	      0.91200901	     -2.60808664	    -14.79571826	     10.55386140	      0.18419963	     27.13914487	     11.01641756	      0.00000000	      0.05927684	      0.21072466	     -0.45460637	      0.11008303	      0.28026380	     -0.48301927	      0.09738593	      0.51235595	     -0.48301927	      0.06774751	      0.51235595	     -0.39778057	      0.05504448	      0.42970973	     -0.36936768	      0.03387079	      0.32641250	     -0.34095478	      0.42340857	      2.38375954	     -2.52838425	      0.00000000	      0.00000000	     -0.23168039	     -1.97946327	     -0.97617409	     -9.74639081	    -17.46352491	      9.58763146	    149.50984991	     87.94605719	    -14.14730340	     -5.92491277	      2.28263908	    -19.85157231	     67.30579564	     24.42188058	     44.98949541	      0.23023039	    -10.97670886
      1.26666667	      0.40599168	     -5.75789331	     86.73483815	      0.23092522	      0.79679386	      0.65374202	      1.44033357	      0.98721692	    -12.01510035	      7.52963964	      0.13141700	     31.18124761	     18.47457840	      0.00000000	      0.83121219	     -2.39503743	    -14.93569261	     10.68231719	      0.18644161	     27.09472097	     11.15678700	      0.00000000	      0.04445487	      0.16322142	     -0.69465060	      0.08255713	      0.21708449	     -0.73806627	      0.07303490	      0.39685657	     -0.73806627	      0.05080747	      0.39685657	     -0.60781928	      0.04128079	      0.33284113	     -0.56440362	      0.02540151	      0.25282999	     -0.52098795	      0.31753666	      1.84639339	     -3.86343827	      0.00000000	      0.00000000	     -0.80351832	     -1.53188051	      0.08524125	     -5.06152925	    -17.31176891	     11.20897847	    149.66785319	     88.58634947	    -15.94175571	     -8.40999830	     -0.17031428	    -19.71621420	     53.89791213	     26.63472713	     55.41912411	     -0.59923705	    -10.04265706
